<?xml version="1.0" encoding="UTF-8" standalone="no"?>
<!-- Created with Inkscape (http://www.inkscape.org/) -->

<svg
   width="50"
   height="50"
   viewBox="0 0 50 50"
   version="1.1"
   id="svg5"
   xmlns="http://www.w3.org/2000/svg"
   xmlns:svg="http://www.w3.org/2000/svg">
  <path
     style="fill:#9a47ff;"
     d="M 24.115234,0.05102772 A 7.7113692,7.7107282 0 0 0 20.804687,1.2403821 L 3.3574221,12.553893 A 7.3608178,7.360206 0 0 0 0,18.729162 v 27.27117 A 4,3.9996675 0 0 0 4.0000001,50 h 2.255859 V 28.991981 c 0,-2.200946 0.868883,-4.316774 2.416016,-5.882324 l 7.2421869,-7.327516 c 1.560792,-1.57937 3.697452,-2.464977 5.917969,-2.450968 l 15.09961,0.09569 c 2.99027,0.01887 5.47656,2.523136 5.47656,5.513214 v 31.059918 h 3.5918 a 4,3.9996675 0 0 0 4,-3.999668 V 18.729162 a 7.3608178,7.360206 0 0 0 -3.35547,-6.175269 L 29.195311,1.2403821 A 7.7113692,7.7107282 0 0 0 24.115234,0.05102772 Z M 23.310547,20.340356 v 6.651791 a 3.50035,3.5000591 0 0 1 -3.5,3.499709 H 13.255859 V 50 H 35.408201 V 20.416522 Z"
   />
</svg>
