<?xml version="1.0" encoding="UTF-8" standalone="no"?>
<!-- Created with Inkscape (http://www.inkscape.org/) -->

<svg
   width="199.5995"
   height="62.127476"
   viewBox="0 0 199.5995 62.127476"
   version="1.1"
   id="svg10391"
   xml:space="preserve"
   xmlns="http://www.w3.org/2000/svg"
   xmlns:svg="http://www.w3.org/2000/svg"><defs
     id="defs23758" /><path
     style="fill:#475569;stroke-linecap:round;stroke-linejoin:round;"
     d="m 13.92661,9.6378815 c 0,0 42.0058,43.0773245 51.73273,51.7752045 2.8356,1.82298 6.59105,-0.0355 6.86169,-3.39567 l 1.70338,-21.40243 c 0.17187,-2.14354 -1.20903,-4.10489 -3.28621,-4.66468 z"
     id="path23760" /><path
     style="fill:#64748b;stroke-linecap:round;stroke-linejoin:round;stroke-dashoffset:17.4168;"
     d="m 5.4975903,0.12739055 c -4.332842,-1.012453 -7.316643,4.24521595 -4.225639,7.44590595 L 35.88743,60.568496 c 1.34242,1.39246 3.42901,1.76165 5.16774,0.91436 l 18.32211,-8.91632 c 3.19181,-1.55531 2.92545,-5.51458 0.32497,-7.84824 L 39.665558,27.857905 A 1.1630235,1.1630235 0 0 1 40.953631,25.93757 L 73.5869,43.015246 c 0.99438,0.33599 2.07539,0.31073 3.05302,-0.0713 l 14.29351,-5.57625 c 4.08644,-1.59273 3.66459,-7.507527 -0.60679,-8.504141 z"
     id="path23762" /><path
     style="fill:none;stroke:#475569;stroke-width:1.1;stroke-linecap:round;stroke-linejoin:round;stroke-dasharray:2.2, 4.40001;stroke-dashoffset:3.96;"
     d="m 89.95877,54.121646 c 30.95189,10.93614 78.31614,1.79895 60.88911,-25.352777 -11.32804,-14.920719 -39.39367,3.318787 -25.99406,18.164637 20.85215,22.30065 63.79081,2.77616 74.74569,-26.188385"
     id="path23764" /></svg>
