<?xml version="1.0" encoding="UTF-8" standalone="no"?>
<svg
   width="210mm"
   height="297mm"
   viewBox="0 0 210 297"
   version="1.1"
   id="svg5"
   xmlns="http://www.w3.org/2000/svg"
   xmlns:svg="http://www.w3.org/2000/svg">
  <rect
     style="fill:#ffffff;"
     width="210"
     height="297"
     x="0"
     y="0"
   />
  <rect
     style="fill:#d7d7d7"
     width="79.375"
     height="15.875"
     x="15.875"
     y="15.875"
   />
  <rect
     style="fill:#d7d7d7;"
     width="47.625"
     height="15.875"
     x="15.875"
     y="55.5625"
  />
  <rect
     style="fill:#d7d7d7;"
     width="111.125"
     height="15.875"
     x="79.375"
     y="55.5625"
  />
  <rect
     style="fill:#d7d7d7;"
     width="63.5"
     height="15.875"
     x="127"
     y="119.0625"
  />
  <rect
     style="fill:#d7d7d7;"
     width="95.25"
     height="15.875"
     x="15.875"
     y="119.0625"
  />
  <rect
     style="fill:#d7d7d7;"
     width="63.5"
     height="15.875"
     x="127"
     y="142.875"
  />
  <rect
     style="fill:#d7d7d7;"
     width="95.25"
     height="15.875"
     x="15.875"
     y="142.875"
  />
  <rect
     style="fill:#d7d7d7;"
     width="79.375"
     height="15.875"
     x="111.125"
     y="238.125"
  />
  <rect
     style="fill:#d7d7d7;"
     width="79.375"
     height="15.875"
     x="15.875"
     y="238.125"
  />
  <rect
     style="fill:#d7d7d7;"
     width="95.25"
     height="15.875"
     x="63.5"
     y="174.625"
   />
  <rect
     style="fill:#d7d7d7;"
     width="31.75"
     height="15.875"
     x="15.875"
     y="174.625"
  />
  <rect
     style="fill:#d7d7d7;"
     width="15.875"
     height="15.875"
     x="174.625"
     y="174.625"
  />
  <rect
     style="fill:#d7d7d7;"
     width="63.5"
     height="15.875"
     x="15.875001"
     y="87.3125"
  />
  <rect
     style="fill:#d7d7d7;"
     width="47.624992"
     height="15.875"
     x="95.250008"
     y="87.3125"
  />
  <rect
     style="fill:#d7d7d7;"
     width="47.624992"
     height="7.9375"
     x="47.625008"
     y="269.875"
  />
  <rect
     style="fill:#d7d7d7;"
     width="31.75"
     height="15.875"
     x="158.75"
     y="87.3125"
  />
  <rect
     style="fill:#d7d7d7;"
     width="31.75"
     height="7.9375"
     x="127"
     y="269.875"
  />
  <rect
     style="fill:#d7d7d7;"
     width="63.5"
     height="15.875"
     x="15.875"
     y="206.375"
  />
  <rect
     style="fill:#d7d7d7;"
     width="47.624992"
     height="15.875"
     x="95.250008"
     y="206.375"
  />
  <rect
     style="fill:#d7d7d7;"
     width="31.75"
     height="15.875"
     x="158.75"
     y="206.375"
   />
  <rect
     style="fill:#d7d7d7;"
     width="31.750006"
     height="15.875"
     x="158.75"
     y="15.875"
   />
</svg>
