<?xml version="1.0" encoding="UTF-8" standalone="no"?>
<!-- Created with Inkscape (http://www.inkscape.org/) -->

<svg
   width="240.98286"
   height="52.287186"
   viewBox="0 0 240.98286 52.287185"
   version="1.1"
   id="svg5"
   xmlns="http://www.w3.org/2000/svg"
   xmlns:svg="http://www.w3.org/2000/svg">
  <path
     style="fill:#dadada;"
     d="M 196.85191,27.306072 V 3.7013868 h 3.74465 l 9.29476,14.4770942 h -1.90576 l 9.26133,-14.4770942 h 3.77809 V 27.306072 h -5.2492 v -14.74457 l 0.93616,0.234041 -6.05163,9.428501 h -3.47717 l -6.01819,-9.428501 0.90272,-0.234041 v 14.74457 z m 35.0676,0.371306 c -1.93975,0 -3.61196,-0.312145 -5.01661,-0.936435 -1.38236,-0.646586 -2.65324,-1.616465 -3.81263,-2.909637 l 3.4113,-3.377854 c 0.75807,0.869547 1.59417,1.549577 2.50831,2.04009 0.93643,0.468217 2.01779,0.702326 3.24407,0.702326 1.11481,0 1.97321,-0.200664 2.5752,-0.601993 0.62429,-0.401329 0.93643,-0.958731 0.93643,-1.672205 0,-0.646586 -0.20066,-1.170544 -0.60199,-1.571873 -0.40133,-0.401329 -0.93643,-0.746918 -1.60532,-1.036767 -0.64659,-0.289849 -1.37121,-0.56855 -2.17386,-0.836103 -0.78037,-0.267553 -1.56073,-0.568549 -2.34109,-0.90299 -0.78036,-0.356737 -1.50498,-0.791511 -2.17387,-1.30432 -0.64659,-0.535106 -1.17054,-1.19284 -1.57187,-1.973202 -0.40133,-0.802659 -0.60199,-1.805982 -0.60199,-3.009969 0,-1.4492439 0.34559,-2.6978236 1.03676,-3.7457387 0.71347,-1.0479151 1.6945,-1.8394255 2.94308,-2.3745311 1.24858,-0.5574016 2.68668,-0.8361024 4.31429,-0.8361024 1.64991,0 3.1549,0.2898488 4.51496,0.8695465 1.38235,0.5796977 2.51945,1.3712081 3.41129,2.3745311 l -3.41129,3.377854 c -0.71347,-0.7357701 -1.4381,-1.2820237 -2.17387,-1.6387608 -0.71347,-0.3567371 -1.52728,-0.5351056 -2.44142,-0.5351056 -0.91414,0 -1.63876,0.1783685 -2.17387,0.5351056 -0.5351,0.334441 -0.80265,0.8249544 -0.80265,1.4715403 0,0.6019931 0.20066,1.0925071 0.60199,1.4715401 0.40133,0.356737 0.92528,0.668882 1.57187,0.936435 0.66889,0.267553 1.39351,0.535105 2.17387,0.802658 0.80266,0.267553 1.59417,0.579698 2.37453,0.936435 0.78036,0.356737 1.49383,0.813806 2.14042,1.371208 0.66889,0.535105 1.20399,1.226283 1.60532,2.073534 0.40133,0.824955 0.60199,1.850574 0.60199,3.076857 0,2.251903 -0.80266,4.02444 -2.40797,5.317612 -1.60532,1.270876 -3.82378,1.906314 -6.65538,1.906314 z m -56.72548,-0.367885 v -4.615286 h 5.85272 c 1.42695,0 2.67553,-0.278701 3.74574,-0.836103 1.07021,-0.579697 1.89517,-1.4158 2.47486,-2.508307 0.5797,-1.092507 0.86955,-2.385679 0.86955,-3.879516 0,-1.493836 -0.301,-2.77586 -0.90299,-3.846071 -0.5797,-1.070211 -1.40465,-1.8951654 -2.47486,-2.4748629 -1.04792,-0.5796977 -2.28535,-0.8695466 -3.7123,-0.8695466 h -6.01994 V 3.6979589 h 6.08683 c 1.78369,0 3.42245,0.2898488 4.91628,0.8695465 1.51613,0.5574017 2.8316,1.3712081 3.9464,2.4414193 1.1371,1.0479151 2.00665,2.2964947 2.60864,3.7457383 0.62429,1.426949 0.93644,3.00997 0.93644,4.749063 0,1.716797 -0.31215,3.299817 -0.93644,4.749062 -0.60199,1.449244 -1.46039,2.697824 -2.57519,3.745739 -1.11481,1.047915 -2.43027,1.861721 -3.9464,2.441419 -1.49384,0.579698 -3.12145,0.869547 -4.88284,0.869547 z m -3.54507,0 V 3.6979589 h 5.25072 V 27.309493 Z m -15.91939,-6.287491 v -4.481509 h 11.83921 v 4.481509 z m -11.00312,6.655376 c -1.76139,0 -3.33326,-0.356737 -4.71562,-1.070211 -1.36006,-0.735771 -2.43027,-1.750242 -3.21063,-3.043413 -0.78036,-1.293172 -1.17054,-2.753565 -1.17054,-4.381178 0,-1.627613 0.37903,-3.076857 1.1371,-4.347732 0.78036,-1.293172 1.82827,-2.307643 3.14374,-3.043413 1.31547,-0.735771 2.79816,-1.103656 4.44807,-1.103656 1.60531,0 3.02111,0.345589 4.2474,1.036767 1.22628,0.691178 2.18501,1.649909 2.87619,2.876193 0.71347,1.226283 1.07021,2.630935 1.07021,4.213956 0,0.289849 -0.0223,0.601994 -0.0669,0.936435 -0.0223,0.312145 -0.078,0.68003 -0.16722,1.103655 l -14.01308,0.03345 V 17.3766 l 11.83922,-0.03344 -2.20731,1.47154 c -0.0223,-0.936435 -0.16726,-1.705649 -0.43478,-2.307642 -0.26755,-0.62429 -0.66888,-1.092508 -1.20399,-1.404653 -0.51281,-0.334441 -1.14824,-0.501661 -1.90631,-0.501661 -0.80266,0 -1.50499,0.189517 -2.10698,0.56855 -0.57969,0.356737 -1.03676,0.869546 -1.37121,1.538428 -0.31214,0.668882 -0.46821,1.482688 -0.46821,2.441419 0,0.958731 0.16722,1.783686 0.50166,2.474864 0.35673,0.668882 0.84725,1.192839 1.47154,1.571872 0.64659,0.356737 1.40465,0.535106 2.2742,0.535106 0.80266,0 1.52728,-0.133776 2.17386,-0.401329 0.64659,-0.289849 1.21514,-0.713474 1.70565,-1.270876 l 2.80931,2.809304 c -0.80266,0.936435 -1.77254,1.638762 -2.90964,2.106979 -1.1371,0.468217 -2.38568,0.702326 -3.74574,0.702326 z M 107.5032,27.309493 V 11.05566 h 5.11694 v 16.253833 z m 10.40111,0 v -9.498125 c 0,-0.824954 -0.2564,-1.460392 -0.76921,-1.906313 -0.49051,-0.468217 -1.10366,-0.702326 -1.83943,-0.702326 -0.51281,0 -0.96988,0.11148 -1.37121,0.334441 -0.40133,0.200665 -0.72462,0.490513 -0.96987,0.869546 -0.22297,0.379033 -0.33445,0.847251 -0.33445,1.404652 l -1.9732,-0.869546 c 0,-1.293172 0.2787,-2.396827 0.83611,-3.310966 0.5574,-0.936435 1.31546,-1.649909 2.27419,-2.140422 0.95873,-0.51281 2.04009,-0.769215 3.24408,-0.769215 1.1371,0 2.15157,0.256405 3.04341,0.769215 0.91414,0.512809 1.63876,1.226283 2.17387,2.140422 0.53511,0.914139 0.80266,2.006646 0.80266,3.277522 v 10.401115 z m 10.40112,0 v -9.498125 c 0,-0.824954 -0.25641,-1.460392 -0.76922,-1.906313 -0.49051,-0.468217 -1.10365,-0.702326 -1.83942,-0.702326 -0.51281,0 -0.96988,0.11148 -1.37121,0.334441 -0.40133,0.200665 -0.72462,0.490513 -0.96988,0.869546 -0.22296,0.379033 -0.33444,0.847251 -0.33444,1.404652 l -2.94308,-0.401329 c 0.0446,-1.382356 0.36789,-2.564047 0.96988,-3.545074 0.62429,-1.003323 1.43809,-1.772538 2.44142,-2.307643 1.02562,-0.557402 2.17387,-0.836103 3.44474,-0.836103 1.24858,0 2.35224,0.267553 3.31097,0.802659 0.98103,0.512809 1.75024,1.259727 2.30764,2.240754 0.57969,0.958731 0.86954,2.118127 0.86954,3.478187 v 10.066674 z m -32.240126,0.367885 c -1.672205,0 -3.188337,-0.367885 -4.548397,-1.103656 -1.337764,-0.758066 -2.396827,-1.783685 -3.17719,-3.076857 -0.780362,-1.293171 -1.170543,-2.742416 -1.170543,-4.347733 0,-1.605317 0.390181,-3.043413 1.170543,-4.314288 0.780363,-1.270876 1.839426,-2.274199 3.17719,-3.009969 1.337764,-0.758067 2.853896,-1.1371 4.548397,-1.1371 1.694501,0 3.210632,0.367885 4.548396,1.103656 1.33777,0.73577 2.39683,1.750241 3.17719,3.043413 0.78037,1.270875 1.17055,2.708971 1.17055,4.314288 0,1.605317 -0.39018,3.054562 -1.17055,4.347733 -0.78036,1.293172 -1.83942,2.318791 -3.17719,3.076857 -1.337764,0.735771 -2.853895,1.103656 -4.548396,1.103656 z m 0,-4.64873 c 0.735771,0 1.382357,-0.156072 1.939758,-0.468217 0.557402,-0.334441 0.981027,-0.791511 1.270876,-1.371209 0.312145,-0.601993 0.468217,-1.282023 0.468217,-2.04009 0,-0.758066 -0.156072,-1.4158 -0.468217,-1.973201 -0.312145,-0.579698 -0.746918,-1.025619 -1.30432,-1.337764 -0.535105,-0.334441 -1.170543,-0.501662 -1.906314,-0.501662 -0.713474,0 -1.348912,0.167221 -1.906313,0.501662 -0.557402,0.312145 -0.992175,0.758066 -1.30432,1.337764 -0.312145,0.579697 -0.468217,1.248579 -0.468217,2.006645 0,0.735771 0.156072,1.404653 0.468217,2.006646 0.312145,0.579698 0.746918,1.036768 1.30432,1.371209 0.557401,0.312145 1.192839,0.468217 1.906313,0.468217 z M 64.293426,27.309493 V 3.6979589 h 5.250723 V 27.309493 Z m 14.615071,0 V 3.6979589 h 5.284168 V 27.309493 Z M 67.437171,17.443483 V 12.895086 H 80.64759 v 4.548397 z"
     id="path2515" />
  <path
     style="fill:#9d4cff;"
     d="m 132.68359,45.72464 c -0.27216,0 -0.50057,-0.09233 -0.68524,-0.277002 -0.17497,-0.194398 -0.26243,-0.422812 -0.26243,-0.685243 0,-0.272153 0.0874,-0.495707 0.26243,-0.670659 0.18467,-0.18467 0.41308,-0.277005 0.68524,-0.277005 0.27215,0 0.49569,0.09234 0.67064,0.277005 0.18468,0.174952 0.27701,0.398506 0.27701,0.670659 0,0.262431 -0.0923,0.490845 -0.27701,0.685243 -0.17495,0.184668 -0.39849,0.277002 -0.67064,0.277002 z m 63.6974,0 c -0.27215,0 -0.50057,-0.09233 -0.68524,-0.277002 -0.17496,-0.194398 -0.26244,-0.422812 -0.26244,-0.685243 0,-0.272153 0.0874,-0.495707 0.26244,-0.670659 0.18467,-0.18467 0.41309,-0.277005 0.68524,-0.277005 0.27215,0 0.4957,0.09234 0.67065,0.277005 0.18467,0.174952 0.277,0.398506 0.277,0.670659 0,0.262431 -0.0923,0.490845 -0.277,0.685243 -0.17495,0.184668 -0.3985,0.277002 -0.67065,0.277002 z m 41.06237,2.909948 V 35.529272 h 1.65195 v 13.105316 z m -6.97482,0.183543 c -0.79538,0 -1.51733,-0.195783 -2.16586,-0.587348 -0.64854,-0.403805 -1.16247,-0.948332 -1.5418,-1.633581 -0.3671,-0.685242 -0.55064,-1.456142 -0.55064,-2.312699 0,-0.856559 0.18354,-1.627462 0.55064,-2.312709 0.37933,-0.685242 0.88714,-1.229766 1.52344,-1.633571 0.64854,-0.403806 1.37661,-0.605708 2.18422,-0.605708 0.66077,0 1.24812,0.140718 1.76207,0.422157 0.52617,0.269201 0.94833,0.648536 1.26648,1.138003 0.31815,0.477219 0.49557,1.03398 0.53229,1.670282 v 2.624732 c -0.0367,0.624061 -0.21417,1.180822 -0.53229,1.670282 -0.30593,0.489465 -0.72197,0.874917 -1.24813,1.156355 -0.51393,0.269203 -1.10741,0.403805 -1.78042,0.403805 z m 0.27533,-1.56016 c 0.81984,0 1.48061,-0.275321 1.98231,-0.825962 0.5017,-0.56288 0.75255,-1.278716 0.75255,-2.147506 0,-0.599595 -0.11625,-1.119648 -0.34874,-1.56016 -0.22025,-0.452753 -0.53841,-0.801494 -0.95445,-1.046223 -0.41606,-0.256964 -0.89938,-0.385445 -1.45003,-0.385445 -0.55065,0 -1.0401,0.128481 -1.46837,0.385445 -0.41606,0.256969 -0.74645,0.611831 -0.99118,1.064584 -0.23249,0.44051 -0.34872,0.948324 -0.34872,1.523438 0,0.587354 0.11623,1.107408 0.34872,1.560161 0.24473,0.440512 0.58124,0.789253 1.00953,1.046221 0.42827,0.256964 0.91773,0.385447 1.46838,0.385447 z m 2.62473,1.376617 v -2.349421 l 0.31204,-2.129146 -0.31204,-2.110806 v -2.129157 h 1.67029 v 8.71853 z m -11.42589,0.183543 c -0.85656,0 -1.63358,-0.201904 -2.33107,-0.605708 -0.68525,-0.403807 -1.22976,-0.948331 -1.63357,-1.633571 -0.39158,-0.697483 -0.58735,-1.468385 -0.58735,-2.31271 0,-0.856557 0.19577,-1.627458 0.58735,-2.312699 0.40381,-0.685249 0.94832,-1.223656 1.63357,-1.61522 0.69749,-0.403806 1.47451,-0.605708 2.33107,-0.605708 0.673,0 1.29706,0.128482 1.87218,0.385446 0.57512,0.244735 1.07069,0.605712 1.48675,1.082932 l -1.1013,1.101295 c -0.2692,-0.318151 -0.5996,-0.556764 -0.99115,-0.715839 -0.37934,-0.171316 -0.8015,-0.256973 -1.26648,-0.256973 -0.55064,0 -1.04012,0.128483 -1.46839,0.385454 -0.42827,0.24473 -0.76479,0.587354 -1.00951,1.027874 -0.24475,0.44051 -0.36709,0.948324 -0.36709,1.523438 0,0.575121 0.12234,1.082937 0.36709,1.52345 0.24472,0.440511 0.58124,0.789251 1.00951,1.046223 0.42827,0.256969 0.91775,0.385454 1.46839,0.385454 0.46498,0 0.88714,-0.07953 1.26648,-0.238612 0.39155,-0.171315 0.72807,-0.416049 1.0095,-0.734199 l 1.08295,1.101294 c -0.40383,0.464986 -0.8994,0.825964 -1.48675,1.082934 -0.57512,0.256962 -1.19918,0.385445 -1.87218,0.385445 z m -10.38881,0 c -0.85656,0 -1.62747,-0.201904 -2.31271,-0.605708 -0.68523,-0.403807 -1.22976,-0.948331 -1.63356,-1.633571 -0.40382,-0.697483 -0.60571,-1.474503 -0.60571,-2.33106 0,-0.844324 0.20189,-1.602989 0.60571,-2.275998 0.4038,-0.685242 0.94833,-1.229766 1.63356,-1.633571 0.68524,-0.403806 1.45615,-0.605708 2.31271,-0.605708 0.84432,0 1.60911,0.201902 2.29437,0.605708 0.69746,0.391564 1.24811,0.929971 1.6519,1.61522 0.40382,0.685241 0.60573,1.450025 0.60573,2.294349 0,0.856557 -0.20191,1.633577 -0.60573,2.33106 -0.40379,0.68524 -0.95444,1.229764 -1.6519,1.633571 -0.68526,0.403804 -1.45005,0.605708 -2.29437,0.605708 z m 0,-1.596862 c 0.55064,0 1.0401,-0.128485 1.46838,-0.385454 0.42828,-0.256972 0.76478,-0.605712 1.00952,-1.046223 0.24474,-0.452753 0.36711,-0.966685 0.36711,-1.5418 0,-0.562881 -0.12849,-1.064578 -0.38547,-1.505088 -0.24473,-0.44052 -0.58123,-0.783144 -1.0095,-1.027874 -0.41606,-0.256971 -0.8994,-0.385454 -1.45004,-0.385454 -0.55064,0 -1.04011,0.128483 -1.46839,0.385454 -0.42827,0.24473 -0.76477,0.587354 -1.0095,1.027874 -0.24474,0.44051 -0.3671,0.942207 -0.3671,1.505088 0,0.575115 0.12236,1.089047 0.3671,1.5418 0.24473,0.440511 0.58123,0.789251 1.0095,1.046223 0.42828,0.256969 0.91775,0.385454 1.46839,0.385454 z m -8.05776,1.413319 V 35.529272 h 1.65192 v 13.105316 z m -17.2535,0.183543 c -0.86878,0 -1.65191,-0.195783 -2.3494,-0.587348 -0.69748,-0.403805 -1.24813,-0.948332 -1.65192,-1.633581 -0.40383,-0.685242 -0.60572,-1.462262 -0.60572,-2.33106 0,-0.856557 0.19578,-1.627458 0.58735,-2.312699 0.40382,-0.685249 0.94222,-1.223656 1.61523,-1.61522 0.68524,-0.403806 1.45001,-0.605708 2.29434,-0.605708 0.80762,0 1.51734,0.183549 2.12916,0.550647 0.62405,0.367092 1.1074,0.874904 1.45002,1.52344 0.35487,0.648533 0.5323,1.382727 0.5323,2.202577 0,0.122361 -0.006,0.256963 -0.0185,0.403805 -0.0122,0.134601 -0.0367,0.293676 -0.0735,0.477226 h -7.36027 v -1.376607 h 6.47924 l -0.6057,0.532287 c 0,-0.587354 -0.10403,-1.082934 -0.31204,-1.48674 -0.20802,-0.416044 -0.50169,-0.734195 -0.88103,-0.954452 -0.37934,-0.232489 -0.83821,-0.348734 -1.3766,-0.348734 -0.56289,0 -1.05847,0.122365 -1.48675,0.367095 -0.42828,0.24473 -0.75865,0.58735 -0.99115,1.027862 -0.23249,0.440519 -0.34875,0.960573 -0.34875,1.56016 0,0.611829 0.12237,1.150235 0.3671,1.615222 0.24472,0.452751 0.59347,0.807608 1.04622,1.064573 0.45274,0.244729 0.97279,0.367095 1.56015,0.367095 0.48946,0 0.93611,-0.08566 1.3399,-0.256963 0.41605,-0.171311 0.77091,-0.428277 1.06459,-0.770901 l 1.06457,1.082933 c -0.41603,0.48946 -0.92996,0.862676 -1.5418,1.119646 -0.59959,0.256962 -1.24202,0.385445 -1.92726,0.385445 z m -8.11281,-0.183543 V 35.529272 h 1.65193 v 13.105316 z m -6.09379,0.183543 c -0.66078,0 -1.26039,-0.134602 -1.79877,-0.403805 -0.52618,-0.281438 -0.94833,-0.66689 -1.26648,-1.156355 -0.31816,-0.48946 -0.49559,-1.046221 -0.53229,-1.670282 v -2.624732 c 0.0367,-0.636302 0.21415,-1.193063 0.53229,-1.670282 0.33037,-0.489467 0.75865,-0.868802 1.28483,-1.138003 0.5384,-0.281439 1.13187,-0.422157 1.78042,-0.422157 0.79536,0 1.51119,0.201902 2.1475,0.605708 0.64855,0.403805 1.15635,0.948329 1.52345,1.633571 0.3671,0.685247 0.55064,1.45615 0.55064,2.312709 0,0.856557 -0.18354,1.627457 -0.55064,2.312699 -0.3671,0.685249 -0.8749,1.229776 -1.52345,1.633581 -0.63631,0.391565 -1.35214,0.587348 -2.1475,0.587348 z m -0.27532,-1.56016 c 0.55064,0 1.03397,-0.128483 1.45002,-0.385447 0.41604,-0.256968 0.74642,-0.605709 0.99115,-1.046221 0.24474,-0.452753 0.36711,-0.972807 0.36711,-1.560161 0,-0.575114 -0.12237,-1.089046 -0.36711,-1.541799 -0.24473,-0.452753 -0.57511,-0.801494 -0.99115,-1.046223 -0.41605,-0.256964 -0.89326,-0.385445 -1.43168,-0.385445 -0.55065,0 -1.03398,0.128481 -1.45001,0.385445 -0.41606,0.244729 -0.74033,0.59347 -0.97281,1.046223 -0.23249,0.452753 -0.34875,0.972806 -0.34875,1.56016 0,0.575113 0.11012,1.089047 0.33038,1.5418 0.2325,0.440512 0.55676,0.789253 0.97281,1.046221 0.42827,0.256964 0.91162,0.385447 1.45004,0.385447 z m -4.31338,5.029213 V 39.916058 h 1.65193 v 2.294348 l -0.31203,2.110807 0.31203,2.129147 v 5.836824 z M 151.754,48.634588 v -8.71853 h 1.65192 v 8.71853 z m 5.89189,0 v -5.267827 c 0,-0.648535 -0.2019,-1.156352 -0.6057,-1.52345 -0.39158,-0.379332 -0.88715,-0.568996 -1.48674,-0.568996 -0.40381,0 -0.76478,0.08566 -1.08294,0.256963 -0.31814,0.171314 -0.57512,0.409928 -0.7709,0.715839 -0.1958,0.305916 -0.29369,0.673015 -0.29369,1.101294 l -0.67912,-0.330395 c 0,-0.660769 0.14072,-1.235882 0.42217,-1.725341 0.29368,-0.489467 0.69135,-0.868802 1.19305,-1.138003 0.50171,-0.281439 1.06458,-0.422157 1.68865,-0.422157 0.61182,0 1.16246,0.134602 1.65192,0.403805 0.50169,0.269203 0.89327,0.648535 1.17471,1.137995 0.29368,0.489459 0.44052,1.070693 0.44052,1.743701 v 5.616572 z m 5.89188,0 v -5.267827 c 0,-0.648535 -0.20189,-1.156352 -0.60571,-1.52345 -0.39156,-0.379332 -0.88103,-0.568996 -1.46837,-0.568996 -0.40381,0 -0.77091,0.08566 -1.10129,0.256963 -0.31816,0.171314 -0.57513,0.409928 -0.77091,0.715839 -0.19578,0.305916 -0.29367,0.673015 -0.29367,1.101294 l -0.9361,-0.330395 c 0.0367,-0.673008 0.21417,-1.248122 0.5323,-1.725341 0.33037,-0.489467 0.75254,-0.868802 1.26647,-1.138003 0.51394,-0.281439 1.07681,-0.422157 1.68865,-0.422157 0.6363,0 1.20529,0.134602 1.70699,0.403805 0.50169,0.269203 0.89938,0.648535 1.19306,1.137995 0.30591,0.489459 0.45888,1.076813 0.45888,1.762061 v 5.598212 z m -15.87689,0 v -8.71853 h 1.65192 v 8.71853 z m 0.82596,-10.462232 c -0.30593,0 -0.55677,-0.09789 -0.75254,-0.293674 -0.19579,-0.208023 -0.29368,-0.46499 -0.29368,-0.7709 0,-0.293678 0.0979,-0.538411 0.29368,-0.7342 0.19577,-0.208016 0.44661,-0.312023 0.75254,-0.312023 0.30591,0 0.55676,0.104007 0.75254,0.312023 0.19578,0.195789 0.29368,0.440522 0.29368,0.7342 0,0.30591 -0.0979,0.562877 -0.29368,0.7709 -0.19578,0.195782 -0.44663,0.293674 -0.75254,0.293674 z m -5.91024,10.645775 c -0.48946,0 -0.95445,-0.06119 -1.39497,-0.183543 -0.42828,-0.134602 -0.82597,-0.31815 -1.19306,-0.550647 -0.36711,-0.244729 -0.68525,-0.532287 -0.95446,-0.862672 l 1.06459,-1.064583 c 0.31816,0.391572 0.68525,0.685249 1.10129,0.881032 0.41602,0.183548 0.88103,0.275322 1.39495,0.275322 0.51394,0 0.91163,-0.08566 1.19307,-0.256961 0.28143,-0.183552 0.42216,-0.434401 0.42216,-0.75255 0,-0.318151 -0.11626,-0.562882 -0.34874,-0.73419 -0.22027,-0.183548 -0.50781,-0.330388 -0.86267,-0.440516 -0.35487,-0.122368 -0.7342,-0.238616 -1.13799,-0.348743 -0.39158,-0.122369 -0.76481,-0.275325 -1.11965,-0.458867 -0.35487,-0.183548 -0.64854,-0.434399 -0.88103,-0.752548 -0.22026,-0.318153 -0.3304,-0.74031 -0.3304,-1.266477 0,-0.526174 0.12848,-0.978927 0.38545,-1.358257 0.25697,-0.391571 0.61184,-0.691365 1.06459,-0.899382 0.46498,-0.208023 1.02173,-0.312034 1.67028,-0.312034 0.68524,0 1.29096,0.122365 1.81713,0.367095 0.53839,0.232495 0.97892,0.587353 1.32154,1.064573 l -1.06456,1.064584 c -0.24476,-0.318151 -0.55066,-0.562883 -0.91776,-0.7342 -0.35485,-0.171309 -0.75867,-0.256962 -1.21142,-0.256962 -0.47722,0 -0.84433,0.08566 -1.10127,0.256962 -0.24476,0.159075 -0.36711,0.385451 -0.36711,0.679129 0,0.293677 0.11013,0.520053 0.33038,0.679129 0.22027,0.159075 0.50782,0.293676 0.86269,0.403805 0.36708,0.110128 0.74643,0.226376 1.13799,0.348744 0.39158,0.110128 0.76478,0.263082 1.11965,0.458865 0.35485,0.195789 0.64242,0.458876 0.86267,0.789261 0.2325,0.330383 0.34874,0.764779 0.34874,1.303186 0,0.819851 -0.29368,1.468385 -0.88104,1.945605 -0.57509,0.477226 -1.35212,0.71584 -2.33104,0.71584 z m -18.1162,-0.183543 v -5.084274 c 0,-0.660776 -0.20802,-1.205303 -0.62406,-1.633581 -0.41606,-0.428279 -0.95444,-0.642418 -1.61522,-0.642418 -0.44052,0 -0.83209,0.09789 -1.1747,0.293674 -0.34263,0.195788 -0.61184,0.464992 -0.80761,0.807609 -0.19579,0.342624 -0.29368,0.734196 -0.29368,1.174716 L 119.266,43.164859 c 0,-0.660776 0.14683,-1.248129 0.44051,-1.762063 0.29368,-0.513934 0.70361,-0.917739 1.22977,-1.211416 0.52616,-0.305911 1.11964,-0.458865 1.78041,-0.458865 0.66077,0 1.24201,0.165192 1.74371,0.495576 0.51394,0.330385 0.91774,0.764781 1.21142,1.303187 0.29367,0.526173 0.44051,1.089054 0.44051,1.688643 v 5.414667 z m -6.16721,0 v -8.71853 h 1.65194 v 8.71853 z m -7.39697,0 v -8.71853 h 1.65192 v 8.71853 z m 1.65192,-4.974153 -0.62406,-0.275324 c 0,-1.113521 0.25697,-2.000669 0.77091,-2.661444 0.51392,-0.660768 1.25424,-0.991152 2.22093,-0.991152 0.44051,0 0.83818,0.07954 1.19306,0.238613 0.35485,0.146836 0.68524,0.397681 0.99115,0.752539 l -1.08292,1.119644 c -0.18356,-0.195782 -0.38547,-0.336501 -0.60572,-0.422155 -0.22026,-0.08566 -0.47723,-0.128481 -0.7709,-0.128481 -0.61182,0 -1.11353,0.195782 -1.50508,0.587347 -0.39158,0.391572 -0.58737,0.985043 -0.58737,1.780413 z m -7.45202,5.157696 c -0.8688,0 -1.65194,-0.195783 -2.3494,-0.587348 -0.69749,-0.403805 -1.24814,-0.948332 -1.65194,-1.633581 -0.4038,-0.685242 -0.6057,-1.462262 -0.6057,-2.33106 0,-0.856557 0.19578,-1.627458 0.58734,-2.312699 0.40381,-0.685249 0.94221,-1.223656 1.61521,-1.61522 0.68524,-0.403806 1.45004,-0.605708 2.29435,-0.605708 0.80762,0 1.51734,0.183549 2.12917,0.550647 0.62406,0.367092 1.10741,0.874904 1.45002,1.52344 0.35486,0.648533 0.53228,1.382727 0.53228,2.202577 0,0.122361 -0.006,0.256963 -0.0185,0.403805 -0.0123,0.134601 -0.0367,0.293676 -0.0734,0.477226 h -7.36031 v -1.376607 h 6.47924 l -0.60571,0.532287 c 0,-0.587354 -0.10402,-1.082934 -0.31204,-1.48674 -0.20801,-0.416044 -0.50168,-0.734195 -0.88103,-0.954452 -0.37932,-0.232489 -0.8382,-0.348734 -1.37661,-0.348734 -0.56287,0 -1.05845,0.122365 -1.48673,0.367095 -0.42828,0.24473 -0.75866,0.58735 -0.99116,1.027862 -0.23249,0.440519 -0.34873,0.960573 -0.34873,1.56016 0,0.611829 0.12235,1.150235 0.36709,1.615222 0.24471,0.452751 0.59347,0.807608 1.04622,1.064573 0.45275,0.244729 0.9728,0.367095 1.56016,0.367095 0.48946,0 0.93608,-0.08566 1.33989,-0.256963 0.41605,-0.171311 0.7709,-0.428277 1.06458,-0.770901 l 1.06458,1.082933 c -0.41605,0.48946 -0.92996,0.862676 -1.54179,1.119646 -0.59961,0.256962 -1.24202,0.385445 -1.92726,0.385445 z m -11.031237,0 c -0.807611,0 -1.529565,-0.195783 -2.165867,-0.587348 -0.636301,-0.403805 -1.144117,-0.948332 -1.52345,-1.633581 -0.367091,-0.685242 -0.550636,-1.456142 -0.550636,-2.312699 0,-0.856559 0.183545,-1.627462 0.550636,-2.312709 0.379333,-0.685242 0.887149,-1.229766 1.52345,-1.633571 0.636302,-0.403806 1.358256,-0.605708 2.165867,-0.605708 0.648537,0 1.235887,0.140718 1.762052,0.422157 0.526174,0.269201 0.948337,0.648536 1.266486,1.138003 0.330386,0.477219 0.513935,1.03398 0.550648,1.670282 v 2.624732 c -0.03671,0.624061 -0.214148,1.180822 -0.532297,1.670282 -0.318151,0.489465 -0.740309,0.874917 -1.266476,1.156355 -0.526173,0.269203 -1.119645,0.403805 -1.780413,0.403805 z m 0.275324,-1.56016 c 0.550639,0 1.027862,-0.128483 1.431667,-0.385447 0.416047,-0.256968 0.740314,-0.605709 0.972803,-1.046221 0.232497,-0.452753 0.348744,-0.966687 0.348744,-1.5418 0,-0.599595 -0.122364,-1.119648 -0.367093,-1.56016 -0.232498,-0.440512 -0.556764,-0.789254 -0.972802,-1.046223 -0.403805,-0.256964 -0.881032,-0.385445 -1.431679,-0.385445 -0.550641,0 -1.033983,0.128481 -1.450029,0.385445 -0.416037,0.256969 -0.746424,0.611831 -0.991153,1.064584 -0.232496,0.44051 -0.348743,0.948324 -0.348743,1.523438 0,0.587354 0.116247,1.107408 0.348743,1.560161 0.244729,0.440512 0.575116,0.789253 0.991153,1.046221 0.428277,0.256964 0.917741,0.385447 1.468389,0.385447 z m 4.313376,1.376617 H 96.98329 v -2.349421 l 0.312034,-2.129146 -0.312034,-2.110806 v -6.515943 h 1.670293 z m -14.683839,0.183543 c -0.856551,0 -1.627449,-0.201904 -2.312699,-0.605708 -0.685248,-0.403807 -1.229775,-0.948331 -1.633579,-1.633571 -0.403805,-0.697483 -0.605707,-1.474503 -0.605707,-2.33106 0,-0.844324 0.201902,-1.602989 0.605707,-2.275998 0.403804,-0.685242 0.948331,-1.229766 1.633579,-1.633571 0.68525,-0.403806 1.456148,-0.605708 2.312699,-0.605708 0.844325,0 1.609108,0.201902 2.29435,0.605708 0.697483,0.391564 1.248126,0.929971 1.651931,1.61522 0.403806,0.685241 0.605709,1.450025 0.605709,2.294349 0,0.856557 -0.201903,1.633577 -0.605709,2.33106 -0.403805,0.68524 -0.954448,1.229764 -1.651931,1.633571 -0.685242,0.403804 -1.450025,0.605708 -2.29435,0.605708 z m 0,-1.596862 c 0.550648,0 1.040111,-0.128485 1.468389,-0.385454 0.42828,-0.256972 0.764784,-0.605712 1.009513,-1.046223 0.24473,-0.452753 0.367095,-0.966685 0.367095,-1.5418 0,-0.562881 -0.128485,-1.064578 -0.385454,-1.505088 -0.24473,-0.44052 -0.581234,-0.783144 -1.009512,-1.027874 -0.41604,-0.256971 -0.899383,-0.385454 -1.450031,-0.385454 -0.550639,0 -1.040099,0.128483 -1.468376,0.385454 -0.428279,0.24473 -0.764786,0.587354 -1.009514,1.027874 -0.244729,0.44051 -0.367094,0.942207 -0.367094,1.505088 0,0.575115 0.122365,1.089047 0.367094,1.5418 0.244728,0.440511 0.581235,0.789251 1.009514,1.046223 0.428277,0.256969 0.917737,0.385454 1.468376,0.385454 z m -19.676317,1.413319 v -8.71853 h 1.651931 v 8.71853 z m 5.891884,0 v -5.267827 c 0,-0.648535 -0.201902,-1.156352 -0.605707,-1.52345 -0.391565,-0.379332 -0.887144,-0.568996 -1.486739,-0.568996 -0.403806,0 -0.764781,0.08566 -1.082924,0.256963 -0.318152,0.171314 -0.575121,0.409928 -0.770909,0.715839 -0.195784,0.305916 -0.293674,0.673015 -0.293674,1.101294 l -0.67913,-0.330395 c 0,-0.660769 0.140722,-1.235882 0.422167,-1.725341 0.293676,-0.489467 0.691361,-0.868802 1.193055,-1.138003 0.501698,-0.281439 1.064579,-0.422157 1.68864,-0.422157 0.611828,0 1.162473,0.134602 1.651933,0.403805 0.501698,0.269203 0.893265,0.648535 1.174705,1.137995 0.293676,0.489459 0.440516,1.070693 0.440516,1.743701 v 5.616572 z m 5.891886,0 v -5.267827 c 0,-0.648535 -0.201903,-1.156352 -0.605708,-1.52345 -0.391565,-0.379332 -0.881025,-0.568996 -1.468378,-0.568996 -0.403807,0 -0.770902,0.08566 -1.101285,0.256963 -0.318151,0.171314 -0.575118,0.409928 -0.770899,0.715839 -0.195789,0.305916 -0.293683,0.673015 -0.293683,1.101294 l -0.936093,-0.330395 c 0.03671,-0.673008 0.214141,-1.248122 0.532286,-1.725341 0.33039,-0.489467 0.752552,-0.868802 1.266486,-1.138003 0.513933,-0.281439 1.076813,-0.422157 1.688641,-0.422157 0.636296,0 1.205292,0.134602 1.706992,0.403805 0.5017,0.269203 0.899388,0.648535 1.193066,1.137995 0.30591,0.489459 0.458865,1.076813 0.458865,1.762061 v 5.598212 z M 23.568621,0.04987534 C 22.414957,0.18290729 21.307644,0.58072329 20.333108,1.2122738 L 3.281308,12.269339 C 1.23546,13.595191 3.7327907e-4,15.866885 0,18.304646 V 44.95765 c 1.7674511e-6,2.158881 1.7502645,3.909 3.909325,3.909004 H 6.1140673 V 28.334809 c 0,-2.151037 0.8491692,-4.218901 2.3612496,-5.748964 l 7.0780311,-7.161438 c 1.525406,-1.543575 3.61364,-2.4091 5.783819,-2.395394 l 14.757348,0.09352 c 2.922479,0.01851 5.352416,2.465942 5.352416,5.388226 v 30.355905 h 3.51039 c 2.159068,-4e-6 3.909334,-1.750135 3.909325,-3.909023 V 18.304646 c 4.2e-5,-2.437397 -1.234292,-4.709013 -3.279419,-6.035307 L 28.533557,1.2122835 C 27.063922,0.25975256 25.3084,-0.15125286 23.568621,0.04988508 Z M 22.782167,19.879306 v 6.501011 c -1.85e-4,1.888951 -1.531563,3.420202 -3.42067,3.420388 H 12.955398 V 48.866654 H 34.605609 V 19.953732 Z"
     id="path2517" />
</svg>
